<mxfile host="app.diagrams.net" modified="2022-10-27T11:49:58.315Z" agent="5.0 (Macintosh; Intel Mac OS X 10_15_7) AppleWebKit/537.36 (KHTML, like Gecko) Chrome/106.0.0.0 Safari/537.36" etag="KpmKpzGq_WbPRMWugGcY" version="20.5.1" type="github">
  <diagram id="bgvt5PuYggvypvkScg1X" name="第 1 页">
    <mxGraphModel dx="1426" dy="794" grid="1" gridSize="10" guides="1" tooltips="1" connect="1" arrows="1" fold="1" page="1" pageScale="1" pageWidth="3300" pageHeight="4681" math="0" shadow="0">
      <root>
        <mxCell id="0" />
        <mxCell id="1" parent="0" />
        <mxCell id="muk2QRLbzU_1VY-n0LTS-1" value="" style="rounded=0;whiteSpace=wrap;html=1;fillColor=#f8cecc;strokeColor=#b85450;" vertex="1" parent="1">
          <mxGeometry x="690" y="210" width="310" height="250" as="geometry" />
        </mxCell>
        <mxCell id="muk2QRLbzU_1VY-n0LTS-2" value="&lt;font color=&quot;#6600cc&quot;&gt;var&lt;/font&gt; &lt;font color=&quot;#3333ff&quot;&gt;name1&lt;/font&gt; &lt;font color=&quot;#ff0000&quot;&gt;= &#39;global scope&#39;&lt;/font&gt;&lt;br&gt;&lt;br&gt;&lt;br&gt;&lt;br&gt;&lt;br&gt;&lt;br&gt;&lt;br&gt;&lt;br&gt;&lt;br&gt;&lt;br&gt;&lt;br&gt;&lt;br&gt;&lt;br&gt;fn()" style="text;html=1;align=left;verticalAlign=middle;resizable=0;points=[];autosize=1;" vertex="1" parent="1">
          <mxGeometry x="720" y="230" width="170" height="210" as="geometry" />
        </mxCell>
        <mxCell id="muk2QRLbzU_1VY-n0LTS-6" value="" style="rounded=0;whiteSpace=wrap;html=1;fillColor=#d5e8d4;strokeColor=#82b366;" vertex="1" parent="1">
          <mxGeometry x="720" y="270" width="260" height="140" as="geometry" />
        </mxCell>
        <mxCell id="muk2QRLbzU_1VY-n0LTS-3" value="&lt;div&gt;&lt;font color=&quot;#6600cc&quot;&gt;function&lt;/font&gt; &lt;font color=&quot;#3333ff&quot;&gt;fn&lt;/font&gt;() {&lt;/div&gt;&lt;div&gt;&amp;nbsp; &lt;font color=&quot;#6600cc&quot;&gt;var &lt;/font&gt;&lt;font color=&quot;#3333ff&quot;&gt;name2&lt;/font&gt; &lt;font color=&quot;#ff0000&quot;&gt;= &#39;function scope&#39;&lt;/font&gt;&lt;/div&gt;&lt;div&gt;&amp;nbsp;&amp;nbsp;&lt;/div&gt;&lt;div&gt;&lt;br&gt;&lt;/div&gt;&lt;div&gt;&lt;br&gt;&lt;/div&gt;&lt;div&gt;&lt;br&gt;&lt;/div&gt;&lt;div&gt;&lt;br&gt;&lt;/div&gt;&lt;div&gt;&lt;br&gt;&lt;/div&gt;&lt;div&gt;}&lt;/div&gt;" style="text;html=1;align=left;verticalAlign=middle;resizable=0;points=[];autosize=1;" vertex="1" parent="1">
          <mxGeometry x="720" y="270" width="180" height="140" as="geometry" />
        </mxCell>
        <mxCell id="muk2QRLbzU_1VY-n0LTS-7" value="" style="rounded=0;whiteSpace=wrap;html=1;fillColor=#fff2cc;strokeColor=#d6b656;" vertex="1" parent="1">
          <mxGeometry x="730" y="310" width="230" height="80" as="geometry" />
        </mxCell>
        <mxCell id="muk2QRLbzU_1VY-n0LTS-4" value="&lt;div style=&quot;&quot;&gt;&lt;font color=&quot;#6600cc&quot;&gt;if &lt;/font&gt;(true) {&lt;/div&gt;&lt;div style=&quot;&quot;&gt;&amp;nbsp; &amp;nbsp; l&lt;font color=&quot;#6600cc&quot;&gt;et&lt;/font&gt; &lt;font color=&quot;#3333ff&quot;&gt;name&lt;/font&gt;3 &lt;font color=&quot;#ff0000&quot;&gt;= &#39;block scope&#39;&lt;/font&gt;&lt;/div&gt;&lt;div style=&quot;&quot;&gt;&amp;nbsp; &amp;nbsp; console.log(name1)&lt;/div&gt;&lt;div style=&quot;&quot;&gt;&amp;nbsp; }&lt;/div&gt;" style="text;html=1;align=left;verticalAlign=middle;resizable=0;points=[];autosize=1;strokeColor=none;fillColor=none;" vertex="1" parent="1">
          <mxGeometry x="730" y="315" width="170" height="70" as="geometry" />
        </mxCell>
        <mxCell id="muk2QRLbzU_1VY-n0LTS-8" value="全局作用域" style="text;html=1;align=center;verticalAlign=middle;resizable=0;points=[];autosize=1;strokeColor=none;fillColor=none;fontColor=#FF0000;fontStyle=1" vertex="1" parent="1">
          <mxGeometry x="920" y="210" width="80" height="30" as="geometry" />
        </mxCell>
        <mxCell id="muk2QRLbzU_1VY-n0LTS-9" value="函数作用域" style="text;html=1;align=center;verticalAlign=middle;resizable=0;points=[];autosize=1;strokeColor=none;fillColor=none;fontColor=#FF0000;fontStyle=1" vertex="1" parent="1">
          <mxGeometry x="900" y="270" width="80" height="30" as="geometry" />
        </mxCell>
        <mxCell id="muk2QRLbzU_1VY-n0LTS-10" value="块级作用域" style="text;html=1;align=center;verticalAlign=middle;resizable=0;points=[];autosize=1;strokeColor=none;fillColor=none;fontColor=#FF0000;fontStyle=1" vertex="1" parent="1">
          <mxGeometry x="880" y="310" width="80" height="30" as="geometry" />
        </mxCell>
      </root>
    </mxGraphModel>
  </diagram>
</mxfile>
